---
name: 11d
---

<?xml version="1.0" encoding="utf-8"?>
<!-- Generator: Adobe Illustrator 18.0.0, SVG Export Plug-In . SVG Version: 6.00 Build 0)  -->
<!DOCTYPE svg PUBLIC "-//W3C//DTD SVG 1.1//EN" "http://www.w3.org/Graphics/SVG/1.1/DTD/svg11.dtd">
<svg version="1.1" id="Capa_1" xmlns="http://www.w3.org/2000/svg" xmlns:xlink="http://www.w3.org/1999/xlink" x="0px" y="0px"
	 viewBox="-5.6 0 28.8 26.1" enable-background="new -5.6 0 28.8 26.1" xml:space="preserve">
<path d="M8.8,10.7L3.5,5.4C2.7,4.6,1.7,4.2,0.6,4.2s-2.1,0.4-2.9,1.2L-3,6.1C-3.8,6.9-4.2,7.9-4.2,9s0.4,2.1,1.2,2.9l8.8,8.8
	c0.8,0.8,1.9,1.2,3,1.2c1.1,0,2.2-0.4,3-1.2l8.8-8.8c0.8-0.8,1.2-1.8,1.2-2.9s-0.4-2.1-1.2-2.9l-0.7-0.7c-0.8-0.8-1.8-1.2-2.9-1.2
	s-2.1,0.4-2.9,1.2L8.8,10.7z M18.5,6.8l0.7,0.7c0.4,0.4,0.6,0.9,0.6,1.5s-0.2,1.1-0.6,1.5l-8.8,8.8c-0.4,0.4-1,0.6-1.6,0.6
	c-0.6,0-1.2-0.2-1.6-0.6l-8.8-8.8C-2,10.1-2.2,9.5-2.2,9S-2,7.9-1.6,7.5l0.7-0.7C-0.1,6,1.3,6,2.1,6.8l6.7,6.7l6.7-6.7
	C16.4,6,17.7,6,18.5,6.8z"/>
</svg>
