---
name: 16d
---

<?xml version="1.0" encoding="utf-8"?>
<!-- Generator: Adobe Illustrator 18.0.0, SVG Export Plug-In . SVG Version: 6.00 Build 0)  -->
<!DOCTYPE svg PUBLIC "-//W3C//DTD SVG 1.1//EN" "http://www.w3.org/Graphics/SVG/1.1/DTD/svg11.dtd">
<svg version="1.1" id="Capa_1" xmlns="http://www.w3.org/2000/svg" xmlns:xlink="http://www.w3.org/1999/xlink" x="0px" y="0px"
	 viewBox="0 0 470.5 470.5" enable-background="new 0 0 470.5 470.5" xml:space="preserve">
<g>
	<path d="M174.7,436.9c16.5,13.6,39,20.4,61.4,20.4c23,0,46-7.1,62.8-21.3c96.9-81.9,259.4-279.2,113-370.7
		c-62.9-39.3-124.6-52-178.2-52v31.4h0c57,0,111.4,15.9,161.6,47.3c27.3,17.1,41.6,38.7,43.6,66c5.9,82.1-92.6,196.9-160.2,254
		c-10.4,8.8-25.9,13.8-42.5,13.8c-16.1,0-31.3-4.8-41.5-13.2C126.5,356.5,26.8,242.3,31.6,157.8c1.7-30.1,17.1-54.3,47.1-73.8
		c4.5-2.7,68-39.4,155-39.4l0-31.4c0,0,0,0,0,0C133.9,13.3,62,57.4,62,57.4C-91.2,156.7,75.7,355.3,174.7,436.9z"/>
</g>
</svg>
