---
name: 16u
---

<?xml version="1.0" encoding="utf-8"?>
<!-- Generator: Adobe Illustrator 18.0.0, SVG Export Plug-In . SVG Version: 6.00 Build 0)  -->
<!DOCTYPE svg PUBLIC "-//W3C//DTD SVG 1.1//EN" "http://www.w3.org/Graphics/SVG/1.1/DTD/svg11.dtd">
<svg version="1.1" id="Capa_1" xmlns="http://www.w3.org/2000/svg" xmlns:xlink="http://www.w3.org/1999/xlink" x="0px" y="0px"
	 viewBox="0 0 470.5 470.5" enable-background="new 0 0 470.5 470.5" xml:space="preserve">
<g>
	<path d="M295.4,33.2c-16.5-13.6-39-20.4-61.4-20.4c-23,0-46,7.1-62.8,21.3C74.2,116-88.2,313.4,58.1,404.8
		c62.9,39.3,124.6,52,178.2,52v-31.4h0c-57,0-111.4-15.9-161.6-47.3c-27.3-17.1-41.6-38.7-43.6-66c-5.9-82.1,92.6-196.9,160.2-254
		c10.4-8.8,25.9-13.8,42.5-13.8c16.1,0,31.3,4.8,41.5,13.2c68.2,56.2,167.9,170.4,163.1,254.8c-1.7,30.1-17.1,54.3-47.1,73.8
		c-4.5,2.7-68,39.4-155,39.4l0,31.4c0,0,0,0,0,0c99.8,0,171.7-44.1,171.7-44.1C561.3,313.4,394.4,114.8,295.4,33.2z"/>
</g>
</svg>
