---
name: 18
---

<?xml version="1.0" encoding="utf-8"?>
<!-- Generator: Adobe Illustrator 18.0.0, SVG Export Plug-In . SVG Version: 6.00 Build 0)  -->
<!DOCTYPE svg PUBLIC "-//W3C//DTD SVG 1.1//EN" "http://www.w3.org/Graphics/SVG/1.1/DTD/svg11.dtd">
<svg version="1.1" id="Capa_1" xmlns="http://www.w3.org/2000/svg" xmlns:xlink="http://www.w3.org/1999/xlink" x="0px" y="0px"
	 viewBox="0 0 402 402" enable-background="new 0 0 402 402" xml:space="preserve">
<g>
	<g>
		<path d="M73.1,164.5h255.8c4.9,0,9.2-1.8,12.8-5.4c3.6-3.6,5.4-7.9,5.4-12.8s-1.8-9.2-5.4-12.9L213.8,5.4C210.2,1.8,206,0,201,0
			s-9.2,1.8-12.9,5.4L60.2,133.3c-3.6,3.6-5.4,7.9-5.4,12.9c0,4.9,1.8,9.2,5.4,12.8C63.9,162.6,68.1,164.5,73.1,164.5z"/>
		<path d="M328.9,237.5H73.1c-5,0-9.2,1.8-12.8,5.4c-3.6,3.6-5.4,7.9-5.4,12.8c0,4.9,1.8,9.2,5.4,12.8l127.9,127.9
			c3.6,3.6,7.9,5.4,12.9,5.4s9.2-1.8,12.8-5.4l127.9-127.9c3.6-3.6,5.4-7.9,5.4-12.8c0-4.9-1.8-9.2-5.4-12.8
			C338.1,239.4,333.9,237.5,328.9,237.5z"/>
	</g>
</g>
</svg>
