---
name: 19d
---

<?xml version="1.0" encoding="utf-8"?>
<!-- Generator: Adobe Illustrator 18.0.0, SVG Export Plug-In . SVG Version: 6.00 Build 0)  -->
<!DOCTYPE svg PUBLIC "-//W3C//DTD SVG 1.1//EN" "http://www.w3.org/Graphics/SVG/1.1/DTD/svg11.dtd">
<svg version="1.1" id="Capa_1" xmlns="http://www.w3.org/2000/svg" xmlns:xlink="http://www.w3.org/1999/xlink" x="0px" y="0px"
	 viewBox="0 0 200 200" enable-background="new 0 0 200 200" xml:space="preserve">
<g>
	<g>
		<path d="M16.2,62.6c5.9,7.1,11.6,14,17.5,21.1c15.5,18.4,30.6,37.1,46.1,55.6c6.2,7.4,14,23.2,25.3,16.9c0.3,0,0.3-0.3,0.6-0.3
			l0,0l0,0c0,0,0,0,0.3,0c0.6-0.3,0.9-0.6,0.9-0.9c23.2-28.2,46.6-56.5,70.1-84.7c3.3-3.9,21.7-19.9,12.2-25.6
			c-7.1-4.5-23.5-1.2-31.2-1.2c-43.1,0-86.2,0-129.2,0c-6.8,0-22.9-2.1-20.2,9.5C9.1,55.7,14.4,60.5,16.2,62.6z M49.5,94.1
			c-0.6-0.9-1.2-1.5-1.8-2.4c0.3-0.3,0.6-0.6,0.6-0.9c2.7-5.3,5.6-11,8.6-16.3c0.9-1.5,0.9-1.5,0.3,0.3c-2.4,5.9-4.8,11.9-7.1,17.8
			C49.8,93.2,49.8,93.5,49.5,94.1z M71.2,118.7c0,0.3-0.3,0.6-0.3,0.9c-0.3-0.3-0.3-0.6-0.6-0.9c0.3-0.3,0.6-0.6,0.9-1.2
			C71.8,116.9,71.8,117.5,71.2,118.7z M79.5,130.9c-0.3-0.3-0.6-0.9-0.9-1.2c0.6,0,0.9-0.6,1.5-1.2c0.9-1.5,1.8-2.7,2.7-4.2
			c0.9-1.5,0.9-1.5,0,0s-1.8,3-2.7,4.5C79.5,129.4,79.5,130,79.5,130.9z M91.1,145.2c-1.5-1.5-3-3.3-4.5-5.1c0.6,0,1.5-0.3,1.8-1.2
			c3.9-5.3,8-10.4,11.9-15.7c0.9-1.2,1.2-1.2,0.3,0.3c-3.3,6.2-6.2,12.8-9.5,19C91.1,143.4,90.8,144.3,91.1,145.2z M183.2,47.4
			c8.3,0-3,11.9-3.6,12.5c-6.2,7.4-12.5,14.9-18.7,22.3c-5.1,5.9-9.8,11.9-14.9,17.8c10.1-17.2,20.2-34.8,30-52.6
			C178.4,47.4,180.8,47.4,183.2,47.4z M165.4,47.4C144,82.2,126.1,119,102.7,152c-0.3,0.3-0.3,0.6-0.6,0.9s-0.3,0.3-0.6,0.6
			c-1.5,0.6-4.2-1.5-7.4-5.1c0.6-0.3,0.9-0.6,1.2-1.2c11.9-26.1,25.8-51.1,40.1-76.1c5.1-8,9.8-16,14.6-24.1
			C155,47.4,160.3,47.4,165.4,47.4z M143.1,47.4c-4.8,8-9.2,16-14,24.1c-13.7,21.7-28.2,42.8-43.7,63.3c-0.6,0.6-0.9,1.5-0.9,2.4
			c-0.9-0.9-1.5-2.1-2.4-3c0.6,0,1.2-0.6,1.5-1.2c12.2-22,26.7-42.5,39.8-64.2c4.2-7.1,8.3-14.3,12.5-21.4
			C138.3,47.4,140.7,47.4,143.1,47.4z M129.7,47.4c-6.2,10.7-12.5,21.4-18.7,31.8c-7.4,11.9-15.2,23.8-22.6,35.7
			c-0.9,1.5-0.9,1.5,0,0C102.1,92.6,115.7,70,129.7,47.4L129.7,47.4z M116,47.4c2.4,0,4.8,0,7.4,0c-15.7,25.6-31.2,51.1-46.9,77
			c-0.3,0.6-0.6,1.2-0.6,1.8c-0.6-0.6-0.9-1.2-1.5-1.8c0.3-0.3,0.6-0.6,0.9-0.9c9.5-19,19.3-37.7,29.7-56.2c3-5.3,5.9-11,9.2-16
			C114.8,49.8,115.4,48.6,116,47.4z M108.6,47.4c-9.2,14-18.1,27.6-27.3,41.6c-0.9,1.5-1.2,1.2-0.6-0.3c1.5-3.3,3-6.2,4.5-9.2
			c6.2-10.7,12.8-21.4,19.6-32.1C106.2,47.4,107.4,47.4,108.6,47.4z M97.9,47.4c-7.1,10.7-14,21.7-19.6,33.3
			c-5.3,8.9-10.4,17.8-15.7,27c-0.3,0.3-0.3,0.9-0.3,1.2c-3-3.3-5.6-6.8-8.3-10.1c0.3-0.3,0.6-0.6,0.6-0.9c1.8-3.3,3.6-6.8,5.3-10.1
			c8-13.4,15.7-26.7,23.8-40.4C88.1,47.4,93.2,47.4,97.9,47.4z M70.3,56.3c1.2-3,2.1-5.9,3.3-8.9c0.9,0,1.5,0,2.4,0
			c-0.3,0.6-0.9,1.5-1.2,2.1c-1.2,2.4-2.7,4.8-3.9,6.8C70,58.1,69.7,57.8,70.3,56.3z M66.4,47.4c0,0.3-0.3,0.3-0.3,0.6
			C58.4,60.2,51,73,44.4,86c-0.3,0.3-0.3,0.9-0.3,1.2c-0.3-0.6-0.9-0.9-1.2-1.5c0.3-0.3,0.6-0.6,0.6-0.9C49.8,72.4,56,59.9,62,47.4
			C63.4,47.4,64.9,47.4,66.4,47.4z M55.4,47.4c-5.3,11-10.7,22-16,32.7c-0.3,0.3-0.3,0.9-0.3,1.2c-2.1-2.4-4.2-5.1-6.2-7.4l0.3-0.3
			c0.3-0.6,0.6-1.2,0.9-2.1c3.9-8,7.4-16,10.7-24.4C48.3,47.4,51.9,47.4,55.4,47.4z M19.2,56c1.2-3,2.4-5.6,3.9-8.6
			c4.5,0,8.9,0,13.1,0c-3,5.9-6.2,11.6-9.5,17.5c-0.3,0.3-0.3,0.9-0.3,1.2c-2.7-3-5.1-6.2-7.7-9.2C18.9,56.6,19.2,56.3,19.2,56z
			 M16.5,47.7c-0.6,1.2-0.9,2.1-1.5,3.3c0,0.3,0,0.3-0.3,0.6C13.8,49.5,14.4,48.3,16.5,47.7z"/>
	</g>
</g>
</svg>
