---
name: 19u
---

<?xml version="1.0" encoding="utf-8"?>
<!-- Generator: Adobe Illustrator 18.0.0, SVG Export Plug-In . SVG Version: 6.00 Build 0)  -->
<!DOCTYPE svg PUBLIC "-//W3C//DTD SVG 1.1//EN" "http://www.w3.org/Graphics/SVG/1.1/DTD/svg11.dtd">
<svg version="1.1" id="Capa_1" xmlns="http://www.w3.org/2000/svg" xmlns:xlink="http://www.w3.org/1999/xlink" x="0px" y="0px"
	 viewBox="0 0 200 200" enable-background="new 0 0 200 200" xml:space="preserve">
<g>
	<g>
		<path d="M183.8,137.4c-5.9-7.1-11.6-14-17.5-21.1c-15.5-18.4-30.6-37.1-46.1-55.6c-6.2-7.4-14-23.2-25.3-16.9
			c-0.3,0-0.3,0.3-0.6,0.3l0,0l0,0c0,0,0,0-0.3,0c-0.6,0.3-0.9,0.6-0.9,0.9C70,73.2,46.5,101.5,23.1,129.7
			c-3.3,3.9-21.7,19.9-12.2,25.6c7.1,4.5,23.5,1.2,31.2,1.2c43.1,0,86.2,0,129.2,0c6.8,0,22.9,2.1,20.2-9.5
			C190.9,144.3,185.6,139.5,183.8,137.4z M150.5,105.9c0.6,0.9,1.2,1.5,1.8,2.4c-0.3,0.3-0.6,0.6-0.6,0.9c-2.7,5.3-5.6,11-8.6,16.3
			c-0.9,1.5-0.9,1.5-0.3-0.3c2.4-5.9,4.8-11.9,7.1-17.8C150.2,106.8,150.2,106.5,150.5,105.9z M128.8,81.3c0-0.3,0.3-0.6,0.3-0.9
			c0.3,0.3,0.3,0.6,0.6,0.9c-0.3,0.3-0.6,0.6-0.9,1.2C128.2,83.1,128.2,82.5,128.8,81.3z M120.5,69.1c0.3,0.3,0.6,0.9,0.9,1.2
			c-0.6,0-0.9,0.6-1.5,1.2c-0.9,1.5-1.8,2.7-2.7,4.2c-0.9,1.5-0.9,1.5,0,0s1.8-3,2.7-4.5C120.5,70.6,120.5,70,120.5,69.1z
			 M108.9,54.8c1.5,1.5,3,3.3,4.5,5.1c-0.6,0-1.5,0.3-1.8,1.2c-3.9,5.3-8,10.4-11.9,15.7c-0.9,1.2-1.2,1.2-0.3-0.3
			c3.3-6.2,6.2-12.8,9.5-19C108.9,56.6,109.2,55.7,108.9,54.8z M16.8,152.6c-8.3,0,3-11.9,3.6-12.5c6.2-7.4,12.5-14.9,18.7-22.3
			c5.1-5.9,9.8-11.9,14.9-17.8c-10.1,17.2-20.2,34.8-30,52.6C21.6,152.6,19.2,152.6,16.8,152.6z M34.6,152.6
			C56,117.8,73.9,81,97.3,48c0.3-0.3,0.3-0.6,0.6-0.9s0.3-0.3,0.6-0.6c1.5-0.6,4.2,1.5,7.4,5.1c-0.6,0.3-0.9,0.6-1.2,1.2
			c-11.9,26.1-25.8,51.1-40.1,76.1c-5.1,8-9.8,16-14.6,24.1C45,152.6,39.7,152.6,34.6,152.6z M56.9,152.6c4.8-8,9.2-16,14-24.1
			c13.7-21.7,28.2-42.8,43.7-63.3c0.6-0.6,0.9-1.5,0.9-2.4c0.9,0.9,1.5,2.1,2.4,3c-0.6,0-1.2,0.6-1.5,1.2
			c-12.2,22-26.7,42.5-39.8,64.2c-4.2,7.1-8.3,14.3-12.5,21.4C61.7,152.6,59.3,152.6,56.9,152.6z M70.3,152.6
			c6.2-10.7,12.5-21.4,18.7-31.8c7.4-11.9,15.2-23.8,22.6-35.7c0.9-1.5,0.9-1.5,0,0C97.9,107.4,84.3,130,70.3,152.6L70.3,152.6z
			 M84,152.6c-2.4,0-4.8,0-7.4,0c15.7-25.6,31.2-51.1,46.9-77c0.3-0.6,0.6-1.2,0.6-1.8c0.6,0.6,0.9,1.2,1.5,1.8
			c-0.3,0.3-0.6,0.6-0.9,0.9c-9.5,19-19.3,37.7-29.7,56.2c-3,5.3-5.9,11-9.2,16C85.2,150.2,84.6,151.4,84,152.6z M91.4,152.6
			c9.2-14,18.1-27.6,27.3-41.6c0.9-1.5,1.2-1.2,0.6,0.3c-1.5,3.3-3,6.2-4.5,9.2c-6.2,10.7-12.8,21.4-19.6,32.1
			C93.8,152.6,92.6,152.6,91.4,152.6z M102.1,152.6c7.1-10.7,14-21.7,19.6-33.3c5.3-8.9,10.4-17.8,15.7-27c0.3-0.3,0.3-0.9,0.3-1.2
			c3,3.3,5.6,6.8,8.3,10.1c-0.3,0.3-0.6,0.6-0.6,0.9c-1.8,3.3-3.6,6.8-5.3,10.1c-8,13.4-15.7,26.7-23.8,40.4
			C111.9,152.6,106.8,152.6,102.1,152.6z M129.7,143.7c-1.2,3-2.1,5.9-3.3,8.9c-0.9,0-1.5,0-2.4,0c0.3-0.6,0.9-1.5,1.2-2.1
			c1.2-2.4,2.7-4.8,3.9-6.8C130,141.9,130.3,142.2,129.7,143.7z M133.6,152.6c0-0.3,0.3-0.3,0.3-0.6c7.7-12.2,15.2-25,21.7-38
			c0.3-0.3,0.3-0.9,0.3-1.2c0.3,0.6,0.9,0.9,1.2,1.5c-0.3,0.3-0.6,0.6-0.6,0.9c-6.2,12.5-12.5,25-18.4,37.4
			C136.6,152.6,135.1,152.6,133.6,152.6z M144.6,152.6c5.3-11,10.7-22,16-32.7c0.3-0.3,0.3-0.9,0.3-1.2c2.1,2.4,4.2,5.1,6.2,7.4
			l-0.3,0.3c-0.3,0.6-0.6,1.2-0.9,2.1c-3.9,8-7.4,16-10.7,24.4C151.7,152.6,148.1,152.6,144.6,152.6z M180.8,144
			c-1.2,3-2.4,5.6-3.9,8.6c-4.5,0-8.9,0-13.1,0c3-5.9,6.2-11.6,9.5-17.5c0.3-0.3,0.3-0.9,0.3-1.2c2.7,3,5.1,6.2,7.7,9.2
			C181.1,143.4,180.8,143.7,180.8,144z M183.5,152.3c0.6-1.2,0.9-2.1,1.5-3.3c0-0.3,0-0.3,0.3-0.6
			C186.2,150.5,185.6,151.7,183.5,152.3z"/>
	</g>
</g>
</svg>
