---
name: 20d
---

<?xml version="1.0" encoding="utf-8"?>
<!-- Generator: Adobe Illustrator 18.0.0, SVG Export Plug-In . SVG Version: 6.00 Build 0)  -->
<!DOCTYPE svg PUBLIC "-//W3C//DTD SVG 1.1//EN" "http://www.w3.org/Graphics/SVG/1.1/DTD/svg11.dtd">
<svg version="1.1" id="Capa_1" xmlns="http://www.w3.org/2000/svg" xmlns:xlink="http://www.w3.org/1999/xlink" x="0px" y="0px"
	 viewBox="0 0 35.1 35.1" enable-background="new 0 0 35.1 35.1" xml:space="preserve">
<g>
	<path d="M15.3,23.4L0.7,6.6C0.3,6.1,0,5.4,0,4.6c0-0.4,0.1-0.8,0.3-1.2C0.8,2.3,1.8,1.6,3,1.6h29.1c1.2,0,2.2,0.7,2.7,1.8
		c0.5,1.1,0.3,2.3-0.5,3.2L19.8,23.4c-0.6,0.7-1.4,1-2.3,1S15.8,24.1,15.3,23.4z M19,32.7l14.5-16.8c0.7-0.8,0.6-2.1-0.2-2.8
		c-0.8-0.7-2.1-0.6-2.8,0.2l-13,15.1l-13-15.1c-0.7-0.8-2-0.9-2.8-0.2c-0.5,0.4-0.7,1-0.7,1.5c0,0.5,0.2,0.9,0.5,1.3L16,32.7
		c0.4,0.4,0.9,0.7,1.5,0.7S18.7,33.2,19,32.7z"/>
</g>
</svg>
