---
name: 20u
---

<?xml version="1.0" encoding="utf-8"?>
<!-- Generator: Adobe Illustrator 18.0.0, SVG Export Plug-In . SVG Version: 6.00 Build 0)  -->
<!DOCTYPE svg PUBLIC "-//W3C//DTD SVG 1.1//EN" "http://www.w3.org/Graphics/SVG/1.1/DTD/svg11.dtd">
<svg version="1.1" id="Capa_1" xmlns="http://www.w3.org/2000/svg" xmlns:xlink="http://www.w3.org/1999/xlink" x="0px" y="0px"
	 viewBox="0 0 35.1 35.1" enable-background="new 0 0 35.1 35.1" xml:space="preserve">
<g>
	<path d="M19.8,11.6l14.5,16.8c0.5,0.6,0.7,1.3,0.7,2c0,0.4-0.1,0.8-0.3,1.2c-0.5,1.1-1.6,1.8-2.7,1.8H3c-1.2,0-2.2-0.7-2.7-1.8
		c-0.5-1.1-0.3-2.3,0.5-3.2l14.5-16.8c0.6-0.7,1.4-1,2.3-1S19.2,11,19.8,11.6z M16,2.3L1.5,19.1C0.8,20,0.9,21.2,1.7,22
		c0.8,0.7,2.1,0.6,2.8-0.2l13-15.1l13,15.1c0.7,0.8,2,0.9,2.8,0.2c0.5-0.4,0.7-1,0.7-1.5c0-0.5-0.2-0.9-0.5-1.3L19,2.3
		c-0.4-0.4-0.9-0.7-1.5-0.7S16.4,1.9,16,2.3z"/>
</g>
</svg>
