---
name: 23d
---

<?xml version="1.0" encoding="utf-8"?>
<!-- Generator: Adobe Illustrator 18.0.0, SVG Export Plug-In . SVG Version: 6.00 Build 0)  -->
<!DOCTYPE svg PUBLIC "-//W3C//DTD SVG 1.1//EN" "http://www.w3.org/Graphics/SVG/1.1/DTD/svg11.dtd">
<svg version="1.1" id="Capa_1" xmlns="http://www.w3.org/2000/svg" xmlns:xlink="http://www.w3.org/1999/xlink" x="0px" y="0px"
	 viewBox="0 0 194 194" enable-background="new 0 0 194 194" xml:space="preserve">
<g>
	<path d="M98.2,166c19.8-4.8,35.4-32.1,46.1-47.8c16.2-23.7,30.3-49.4,43.5-75c7.1-0.7,7-11.9-0.5-11.7c-10.2,0.2-20.4,0.1-30.6-0.1
		c-0.3-0.9-1.8-1.4-2.6-0.4c-0.1,0.1-0.1,0.2-0.2,0.3c-50.4-1.3-101.2-6.3-151.1-1.7C-0.3,30-1.5,32.8-0.7,35
		c-0.1,0.5-0.1,1,0.1,1.5C7.2,61.9,23,84.9,38.7,106c13.8,18.6,32.4,44.8,54.1,55.4C92.5,164.2,94.7,166.9,98.2,166z M8.3,38.1
		c5.5,0.5,11,1,16.5,1.4c-3.5,3.8-6.8,8-8.8,12.5C13.4,47.5,10.8,42.8,8.3,38.1z M18.2,55.9c2-2.7,3.6-5.8,5.5-8.6
		c1.8-2.6,3.7-5,5.8-7.4c5.3,0.4,10.7,0.8,16,1.1C41.8,45,38.1,49,34.6,53c-3.1,3.6-8.1,8.3-10.1,13.2
		C22.3,62.8,20.2,59.4,18.2,55.9z M27.2,70.5c4.7-4.1,8-10.9,11.9-15.7c3.8-4.6,7.8-9.1,11.9-13.4c3.6,0.2,7.2,0.3,10.8,0.5
		c-5.5,7.8-11.9,15-18.4,22c-3.7,4-8.3,8.1-12.1,12.7C29.9,74.6,28.5,72.6,27.2,70.5z M34.9,81.9c4.9-5.4,9.4-11.7,13.9-16.9
		C55,57.7,61,50.3,66,42.2c2.5,0.1,5,0.2,7.5,0.3c-5.1,10.4-11.7,20-18.4,29.4c-4.3,6-9.9,11.7-14.5,18
		C38.7,87.2,36.8,84.6,34.9,81.9z M51.8,104.2c-2.6-3.2-5.2-6.4-7.7-9.7c6.2-7.3,11.2-16.6,16.3-23.9c6.1-8.9,11.8-18.1,16.3-28
		c6.7,0.3,13.3,0.5,20,0.7c-17.1,17.5-34.1,39.6-44.7,60.9c0,0.1,0,0.1,0,0.2C51.9,104.3,51.8,104.3,51.8,104.2z M54.4,107.2
		c0.3-0.1,0.5-0.3,0.8-0.5c8-9.4,14-20.7,20.8-31c7.6-11.4,16-22.1,25-32.3c7.2,0.2,14.4,0.3,21.6,0.4c-19.7,24.4-40.8,48.3-58.3,74
		C60.9,114.4,57.6,110.9,54.4,107.2z M68.2,121.9c20.9-24.7,40.1-51.7,59.2-78c5.8,0.1,11.6,0,17.4,0c-21.4,30.1-40,61.5-65.6,88.6
		C75.5,129,71.8,125.5,68.2,121.9z M115.3,97.9c11.7-17.7,22.1-36.2,33.7-54c4.3,0,8.5-0.1,12.7-0.2c-25,31.7-50.2,65.6-71.2,100
		c-2.3-2.4-4.7-4.7-7.1-7.1C96.9,127.2,106.5,111.2,115.3,97.9z M95.2,148.6c12.8-18.7,25.2-37.6,38.3-56.2
		c11-15.7,23.6-31.5,32.3-48.7c4-0.1,8-0.1,12-0.2c-10.9,17.8-21.1,36-32.5,53.4c-8.6,13.1-17.6,25.9-27.6,38
		c-5.5,6.7-12.5,11.8-18.6,17.8C97.8,151.3,96.5,150,95.2,148.6z"/>
</g>
</svg>
