---
name: 23u
---

<?xml version="1.0" encoding="utf-8"?>
<!-- Generator: Adobe Illustrator 18.0.0, SVG Export Plug-In . SVG Version: 6.00 Build 0)  -->
<!DOCTYPE svg PUBLIC "-//W3C//DTD SVG 1.1//EN" "http://www.w3.org/Graphics/SVG/1.1/DTD/svg11.dtd">
<svg version="1.1" id="Capa_1" xmlns="http://www.w3.org/2000/svg" xmlns:xlink="http://www.w3.org/1999/xlink" x="0px" y="0px"
	 viewBox="0 0 194 194" enable-background="new 0 0 194 194" xml:space="preserve">
<g>
	<path d="M94.8,27C75,31.8,59.4,59.1,48.7,74.8c-16.2,23.7-30.3,49.4-43.5,75c-7.1,0.7-7,11.9,0.5,11.7c10.2-0.2,20.4-0.1,30.6,0.1
		c0.3,0.9,1.8,1.4,2.6,0.4c0.1-0.1,0.1-0.2,0.2-0.3c50.4,1.3,101.2,6.3,151.1,1.7c3.2-0.3,4.4-3.1,3.6-5.3c0.1-0.5,0.1-1-0.1-1.5
		c-7.8-25.3-23.6-48.4-39.3-69.5c-13.8-18.6-32.4-44.8-54.1-55.4C100.5,28.9,98.3,26.2,94.8,27z M184.7,154.9
		c-5.5-0.5-11-1-16.5-1.4c3.5-3.8,6.8-8,8.8-12.5C179.7,145.6,182.3,150.2,184.7,154.9z M174.9,137.1c-2,2.7-3.6,5.8-5.5,8.6
		c-1.8,2.6-3.7,5-5.8,7.4c-5.3-0.4-10.7-0.8-16-1.1c3.7-3.9,7.4-7.9,10.9-11.9c3.1-3.6,8.1-8.3,10.1-13.2
		C170.7,130.3,172.9,133.7,174.9,137.1z M165.9,122.6c-4.7,4.1-8,10.9-11.9,15.7c-3.8,4.6-7.8,9.1-11.9,13.4
		c-3.6-0.2-7.2-0.3-10.8-0.5c5.5-7.8,11.9-15,18.4-22c3.7-4,8.3-8.1,12.1-12.7C163.2,118.5,164.5,120.5,165.9,122.6z M158.2,111.2
		c-4.9,5.4-9.4,11.7-13.9,16.9c-6.2,7.2-12.2,14.7-17.3,22.8c-2.5-0.1-5-0.2-7.5-0.3c5.1-10.4,11.7-20,18.4-29.4
		c4.3-6,9.9-11.7,14.5-18C154.3,105.9,156.3,108.5,158.2,111.2z M141.3,88.8c2.6,3.2,5.2,6.4,7.7,9.7c-6.2,7.3-11.2,16.6-16.3,23.9
		c-6.1,8.9-11.8,18.1-16.3,28c-6.7-0.3-13.3-0.5-20-0.7c17.1-17.5,34.1-39.6,44.7-60.9c0-0.1,0-0.1,0-0.2
		C141.2,88.8,141.2,88.8,141.3,88.8z M138.7,85.9c-0.3,0.1-0.5,0.3-0.8,0.5c-8,9.4-14,20.7-20.8,31c-7.6,11.4-16,22.1-25,32.3
		c-7.2-0.2-14.4-0.3-21.6-0.4c19.7-24.4,40.8-48.3,58.3-74C132.2,78.6,135.5,82.2,138.7,85.9z M124.8,71.2
		c-20.9,24.7-40.1,51.7-59.2,78c-5.8-0.1-11.6,0-17.4,0c21.4-30.1,40-61.5,65.6-88.6C117.5,64.1,121.2,67.6,124.8,71.2z M77.8,95.2
		c-11.7,17.7-22.1,36.2-33.7,54c-4.3,0-8.5,0.1-12.7,0.2c25-31.7,50.2-65.6,71.2-100c2.3,2.4,4.7,4.7,7.1,7.1
		C96.2,65.9,86.6,81.9,77.8,95.2z M97.9,44.5c-12.8,18.7-25.2,37.6-38.3,56.2c-11,15.7-23.6,31.5-32.3,48.7c-4,0.1-8,0.1-12,0.2
		c10.9-17.8,21.1-36,32.5-53.4c8.6-13.1,17.6-25.9,27.6-38c5.5-6.7,12.5-11.8,18.6-17.8C95.3,41.7,96.6,43.1,97.9,44.5z"/>
</g>
</svg>
