---
name: 27d
---

<?xml version="1.0" encoding="utf-8"?>
<!-- Generator: Adobe Illustrator 18.0.0, SVG Export Plug-In . SVG Version: 6.00 Build 0)  -->
<!DOCTYPE svg PUBLIC "-//W3C//DTD SVG 1.1//EN" "http://www.w3.org/Graphics/SVG/1.1/DTD/svg11.dtd">
<svg version="1.1" id="Capa_1" xmlns="http://www.w3.org/2000/svg" xmlns:xlink="http://www.w3.org/1999/xlink" x="0px" y="0px"
	 viewBox="0 0 200 200" enable-background="new 0 0 200 200" xml:space="preserve">
<g>
	<g id="c118_triangle">
		<path d="M195.9,35.1h-15.8l-76.9,97.5c-0.8,1-2,1.5-3.2,1.5c-1.3,0-2.4-0.6-3.2-1.5L19.9,35.1H4.1c-1.6,0-3,0.9-3.7,2.3
			c-0.7,1.4-0.5,3.1,0.5,4.3l95.9,121.6c0.8,1,2,1.5,3.2,1.5c1.2,0,2.4-0.6,3.2-1.5l95.9-121.6c1-1.2,1.1-2.9,0.4-4.3
			C198.9,36,197.5,35.1,195.9,35.1z"/>
	</g>
	<g id="Capa_1_184_">
	</g>
</g>
</svg>
