---
name: 27u
---

<?xml version="1.0" encoding="utf-8"?>
<!-- Generator: Adobe Illustrator 18.0.0, SVG Export Plug-In . SVG Version: 6.00 Build 0)  -->
<!DOCTYPE svg PUBLIC "-//W3C//DTD SVG 1.1//EN" "http://www.w3.org/Graphics/SVG/1.1/DTD/svg11.dtd">
<svg version="1.1" id="Capa_1" xmlns="http://www.w3.org/2000/svg" xmlns:xlink="http://www.w3.org/1999/xlink" x="0px" y="0px"
	 viewBox="0 0 200 200" enable-background="new 0 0 200 200" xml:space="preserve">
<g>
	<g id="c118_triangle">
		<path d="M1.2,161.9h15.8l76.9-97.5c0.8-1,2-1.5,3.2-1.5c1.3,0,2.4,0.6,3.2,1.5l76.9,97.5H193c1.6,0,3-0.9,3.7-2.3
			c0.7-1.4,0.5-3.1-0.5-4.3L100.3,33.7c-0.8-1-2-1.5-3.2-1.5c-1.2,0-2.4,0.6-3.2,1.5L-2.1,155.3c-1,1.2-1.1,2.9-0.4,4.3
			C-1.9,161-0.4,161.9,1.2,161.9z"/>
	</g>
	<g id="Capa_1_184_">
	</g>
</g>
</svg>
