---
name: 28d
---

<?xml version="1.0" encoding="utf-8"?>
<!-- Generator: Adobe Illustrator 18.0.0, SVG Export Plug-In . SVG Version: 6.00 Build 0)  -->
<!DOCTYPE svg PUBLIC "-//W3C//DTD SVG 1.1//EN" "http://www.w3.org/Graphics/SVG/1.1/DTD/svg11.dtd">
<svg version="1.1" id="Capa_1" xmlns="http://www.w3.org/2000/svg" xmlns:xlink="http://www.w3.org/1999/xlink" x="0px" y="0px"
	 viewBox="0 0 200 200" enable-background="new 0 0 200 200" xml:space="preserve">
<g>
	<g id="c123_arrow">
		<path d="M100,187c48,0,87-39,87-87s-39-87-87-87s-87,39-87,87S51.9,187,100,187z M99.9,156.2c-0.7,0-1.4-0.3-1.8-0.9l-50.5-79
			c-0.5-0.7-0.7-1.7-0.3-2.5c0.4-0.8,1.2-1.3,2.2-1.3h100.9c1,0,1.7,0.5,2.2,1.3l0.3,1c0,0.5-0.2,1-0.5,1.5l-50.5,79
			C101.4,155.9,100.7,156.2,99.9,156.2z"/>
	</g>
	<g id="Capa_1_196_">
	</g>
</g>
</svg>
