---
name: 28u
---

<?xml version="1.0" encoding="utf-8"?>
<!-- Generator: Adobe Illustrator 18.0.0, SVG Export Plug-In . SVG Version: 6.00 Build 0)  -->
<!DOCTYPE svg PUBLIC "-//W3C//DTD SVG 1.1//EN" "http://www.w3.org/Graphics/SVG/1.1/DTD/svg11.dtd">
<svg version="1.1" id="Capa_1" xmlns="http://www.w3.org/2000/svg" xmlns:xlink="http://www.w3.org/1999/xlink" x="0px" y="0px"
	 viewBox="0 0 200 200" enable-background="new 0 0 200 200" xml:space="preserve">
<g>
	<g id="c123_arrow">
		<path d="M99,13c-48,0-87,39-87,87s39,87,87,87s87-39,87-87S147.1,13,99,13z M99.1,43.8c0.7,0,1.4,0.3,1.8,0.9l50.5,79
			c0.5,0.7,0.7,1.7,0.3,2.5c-0.4,0.8-1.2,1.3-2.2,1.3H48.5c-1,0-1.7-0.5-2.2-1.3l-0.3-1c0-0.5,0.2-1,0.5-1.5l50.5-79
			C97.6,44.1,98.3,43.8,99.1,43.8z"/>
	</g>
	<g id="Capa_1_196_">
	</g>
</g>
</svg>
