---
name: 29d
---

<?xml version="1.0" encoding="utf-8"?>
<!-- Generator: Adobe Illustrator 18.0.0, SVG Export Plug-In . SVG Version: 6.00 Build 0)  -->
<!DOCTYPE svg PUBLIC "-//W3C//DTD SVG 1.1//EN" "http://www.w3.org/Graphics/SVG/1.1/DTD/svg11.dtd">
<svg version="1.1" id="Capa_1" xmlns="http://www.w3.org/2000/svg" xmlns:xlink="http://www.w3.org/1999/xlink" x="0px" y="0px"
	 viewBox="0 0 200 200" enable-background="new 0 0 200 200" xml:space="preserve">
<g>
	<g>
		<g>
			<path d="M10,43.4c0-11.2,9-18.9,22.4-18.9h135.2C181,24.8,190,32.1,190,43.4c0,4.4-1.4,8.8-3.8,13.4l-67.9,106.4
				c-4.7,7.9-11.2,12.3-18.3,12.3c-7.1,0-13.7-4.4-18.3-12.6L14.1,56.8C11.4,52.1,10,47.7,10,43.4z M179.1,43.4
				c0-7.1-7.9-7.9-11.5-7.9H32.4c-3.6,0-11.5,0.8-11.5,7.9c0,2.2,0.8,4.9,2.5,7.9L91,157.5c2.7,4.7,6,7.1,9,7.1c3,0,6.3-2.5,9-7.1
				L176.6,51C178.2,48.6,179.1,45.8,179.1,43.4z"/>
		</g>
		<g>
			<g>
				<path d="M64.4,97.8c0-0.8,0.5-1.9,1.4-2.2c1.4-0.8,3-0.5,3.8,0.8l0.8,1.4c0.8,1.4,0.5,3-0.8,3.8c-1.4,0.8-3,0.5-3.8-0.8L65,99.5
					C64.7,98.9,64.4,98.4,64.4,97.8z"/>
			</g>
			<g>
				<path d="M39.3,57.9c0-0.8,0.5-1.9,1.4-2.2c1.4-0.8,3-0.5,3.8,0.8l19.2,30.4c0.8,1.4,0.5,3-0.8,3.8c-1.4,0.8-3,0.5-3.8-0.8
					L39.5,59.2C39.5,58.7,39.3,58.1,39.3,57.9z"/>
			</g>
		</g>
	</g>
</g>
</svg>
