---
name: 29u
---

<?xml version="1.0" encoding="utf-8"?>
<!-- Generator: Adobe Illustrator 18.0.0, SVG Export Plug-In . SVG Version: 6.00 Build 0)  -->
<!DOCTYPE svg PUBLIC "-//W3C//DTD SVG 1.1//EN" "http://www.w3.org/Graphics/SVG/1.1/DTD/svg11.dtd">
<svg version="1.1" id="Capa_1" xmlns="http://www.w3.org/2000/svg" xmlns:xlink="http://www.w3.org/1999/xlink" x="0px" y="0px"
	 viewBox="0 0 200 200" enable-background="new 0 0 200 200" xml:space="preserve">
<g>
	<g>
		<g>
			<path d="M190,156.6c0,11.2-9,18.9-22.4,18.9H32.4C19,175.2,10,167.9,10,156.6c0-4.4,1.4-8.8,3.8-13.4L81.7,36.8
				c4.7-7.9,11.2-12.3,18.3-12.3c7.1,0,13.7,4.4,18.3,12.6l67.6,106.2C188.6,147.9,190,152.3,190,156.6z M20.9,156.6
				c0,7.1,7.9,7.9,11.5,7.9h135.2c3.6,0,11.5-0.8,11.5-7.9c0-2.2-0.8-4.9-2.5-7.9L109,42.5c-2.7-4.7-6-7.1-9-7.1c-3,0-6.3,2.5-9,7.1
				L23.4,149C21.8,151.4,20.9,154.2,20.9,156.6z"/>
		</g>
		<g>
			<g>
				<path d="M135.6,102.2c0,0.8-0.5,1.9-1.4,2.2c-1.4,0.8-3,0.5-3.8-0.8l-0.8-1.4c-0.8-1.4-0.5-3,0.8-3.8c1.4-0.8,3-0.5,3.8,0.8
					l0.8,1.4C135.3,101.1,135.6,101.6,135.6,102.2z"/>
			</g>
			<g>
				<path d="M160.7,142.1c0,0.8-0.5,1.9-1.4,2.2c-1.4,0.8-3,0.5-3.8-0.8l-19.2-30.4c-0.8-1.4-0.5-3,0.8-3.8c1.4-0.8,3-0.5,3.8,0.8
					l19.4,30.6C160.5,141.3,160.7,141.9,160.7,142.1z"/>
			</g>
		</g>
	</g>
</g>
</svg>
