---
name: 30d
---

<?xml version="1.0" encoding="utf-8"?>
<!-- Generator: Adobe Illustrator 18.0.0, SVG Export Plug-In . SVG Version: 6.00 Build 0)  -->
<!DOCTYPE svg PUBLIC "-//W3C//DTD SVG 1.1//EN" "http://www.w3.org/Graphics/SVG/1.1/DTD/svg11.dtd">
<svg version="1.1" id="Capa_1" xmlns="http://www.w3.org/2000/svg" xmlns:xlink="http://www.w3.org/1999/xlink" x="0px" y="0px"
	 viewBox="0 0 460.5 460.5" enable-background="new 0 0 460.5 460.5" xml:space="preserve">
<g>
	<g>
		<path d="M317.3,349.6c3.5-6.6,6.5-12.3,8.9-16.1c17.5-27.9,34.7-57.9,51.1-89.1c15.4-29.2,30.4-59.9,44.4-91.2
			c3.6-8.1,8.2-15.9,13.1-24.1c8-13.6,16.3-27.6,20.5-43.8c3.9-14.9,1.3-26.9-7-34.9c-11.2-10.6-29.3-11.3-45.5-10.5
			c-27.1,1.3-54.9,1.7-81.7,2c-12.9,0.2-25.8,0.3-38.7,0.6c-23.7,0.5-47.5,0.7-71.2,1c-61.4,0.7-124.9,1.3-187.4,6
			c-2.1,0.2-4.1,0.6-6.3,1.3C5.3,52.6-3.4,61.9-3.4,73.3c0,3.1,0.6,6.2,1.8,9.3c23.7,59.9,58.7,120.5,107,185.2
			c20.6,27.5,43.3,55.6,67.5,83.6c4.5,5.1,9.3,12,14.3,19.2c13.6,19.3,29,41.3,49.5,48.3c7.9,2.7,20.4,3.9,34.7-5.9
			C291,399.5,306.2,370.7,317.3,349.6z M248.1,359.3C188.1,294,108.3,200,60.2,97.9c62.2-3.4,125.3-3.9,186.5-4.4
			c48.1-0.4,97.7-0.8,146.8-2.6C350.4,193.4,300.4,285.7,248.1,359.3z"/>
	</g>
</g>
</svg>
