---
name: 30u
---

<?xml version="1.0" encoding="utf-8"?>
<!-- Generator: Adobe Illustrator 18.0.0, SVG Export Plug-In . SVG Version: 6.00 Build 0)  -->
<!DOCTYPE svg PUBLIC "-//W3C//DTD SVG 1.1//EN" "http://www.w3.org/Graphics/SVG/1.1/DTD/svg11.dtd">
<svg version="1.1" id="Capa_1" xmlns="http://www.w3.org/2000/svg" xmlns:xlink="http://www.w3.org/1999/xlink" x="0px" y="0px"
	 viewBox="0 0 460.5 460.5" enable-background="new 0 0 460.5 460.5" xml:space="preserve">
<g>
	<g>
		<path d="M139.7,107.5c-3.5,6.6-6.5,12.3-8.9,16.1c-17.5,27.9-34.7,57.9-51.1,89.1c-15.4,29.2-30.4,59.9-44.4,91.2
			c-3.6,8.1-8.2,15.9-13.1,24.1c-8,13.6-16.3,27.6-20.5,43.8c-3.9,14.9-1.3,26.9,7,34.9C20,417.3,38.1,418,54.3,417.2
			c27.1-1.3,54.9-1.7,81.7-2c12.9-0.2,25.8-0.3,38.7-0.6c23.7-0.5,47.5-0.7,71.2-1c61.4-0.7,124.9-1.3,187.4-6
			c2.1-0.2,4.1-0.6,6.3-1.3c12.2-1.9,20.9-11.2,20.9-22.6c0-3.1-0.6-6.2-1.8-9.3c-23.7-59.9-58.7-120.5-107-185.2
			c-20.6-27.5-43.3-55.6-67.5-83.6c-4.5-5.1-9.3-12-14.3-19.2c-13.6-19.3-29-41.3-49.5-48.3c-7.9-2.7-20.4-3.9-34.7,5.9
			C166,57.5,150.8,86.4,139.7,107.5z M208.9,97.7C269,163,348.7,257,396.9,359.1c-62.2,3.4-125.3,3.9-186.5,4.4
			c-48.1,0.4-97.7,0.8-146.8,2.6C106.7,263.7,156.7,171.4,208.9,97.7z"/>
	</g>
</g>
</svg>
