---
name: chevron11
---

<?xml version="1.0" encoding="utf-8"?>
<!-- Generator: Adobe Illustrator 18.0.0, SVG Export Plug-In . SVG Version: 6.00 Build 0)  -->
<!DOCTYPE svg PUBLIC "-//W3C//DTD SVG 1.1//EN" "http://www.w3.org/Graphics/SVG/1.1/DTD/svg11.dtd">
<svg version="1.1" id="Capa_1" xmlns="http://www.w3.org/2000/svg" xmlns:xlink="http://www.w3.org/1999/xlink" x="0px" y="0px"
	 viewBox="-5.6 0 28.8 26.1" enable-background="new -5.6 0 28.8 26.1" xml:space="preserve">
<path d="M8.8,15.4l5.3,5.3c0.8,0.8,1.8,1.2,2.9,1.2s2.1-0.4,2.9-1.2l0.7-0.7c0.8-0.8,1.2-1.8,1.2-2.9s-0.4-2.1-1.2-2.9l-8.8-8.8
	c-0.8-0.8-1.9-1.2-3-1.2c-1.1,0-2.2,0.4-3,1.2L-3,14.2C-3.8,15-4.2,16-4.2,17.1S-3.8,19.2-3,20l0.7,0.7c0.8,0.8,1.8,1.2,2.9,1.2
	s2.1-0.4,2.9-1.2L8.8,15.4z M-0.9,19.3l-0.7-0.7c-0.4-0.4-0.6-0.9-0.6-1.5S-2,16-1.6,15.6l8.8-8.8c0.4-0.4,1-0.6,1.6-0.6
	c0.6,0,1.2,0.2,1.6,0.6l8.8,8.8c0.4,0.4,0.6,0.9,0.6,1.5s-0.2,1.1-0.6,1.5l-0.7,0.7c-0.8,0.8-2.1,0.8-2.9,0l-6.7-6.7l-6.7,6.7
	C1.3,20.1-0.1,20.1-0.9,19.3z"/>
</svg>
